<?xml version="1.0" standalone="no"?>
<!DOCTYPE svg PUBLIC "-//W3C//DTD SVG 20010904//EN"
 "http://www.w3.org/TR/2001/REC-SVG-20010904/DTD/svg10.dtd">
<svg version="1.0" xmlns="http://www.w3.org/2000/svg"
 width="403.000000pt" height="410.000000pt" viewBox="0 0 403.000000 410.000000"
 preserveAspectRatio="xMidYMid meet">

<g transform="translate(0.000000,410.000000) scale(0.100000,-0.100000)"
fill="#000000" stroke="none">
<path d="M0 2050 l0 -2050 2015 0 2015 0 0 2050 0 2050 -2015 0 -2015 0 0
-2050z m1968 1248 c-3 -39 -6 -44 -37 -54 l-33 -11 33 -13 c50 -21 198 -123
250 -172 80 -77 201 -262 181 -279 -4 -3 -47 -22 -97 -42 -49 -20 -128 -53
-175 -73 -124 -53 -121 -53 -149 1 -37 70 -138 158 -234 204 -45 22 -85 36
-90 32 -4 -4 -6 -148 -5 -321 l3 -313 100 -28 99 -27 36 30 c19 17 162 148
318 291 390 357 502 489 502 591 0 40 -4 48 -35 72 -36 27 -125 54 -182 54
-26 0 -34 5 -39 24 -3 13 -4 35 -2 47 l3 24 513 3 512 2 0 -38 c0 -49 -14 -62
-66 -62 -60 0 -171 -25 -224 -51 -88 -43 -161 -109 -587 -533 l-433 -429 28
-33 c15 -17 60 -70 101 -116 159 -179 198 -224 372 -430 100 -117 261 -312
359 -433 98 -121 198 -238 222 -261 86 -81 182 -126 301 -139 l57 -6 0 -45 0
-44 -565 0 c-311 0 -572 3 -580 6 -10 4 -15 20 -15 44 0 43 12 50 97 50 55 0
140 30 161 57 19 27 14 73 -15 122 -30 54 -133 189 -211 279 l-55 63 -22 -55
c-39 -96 -76 -149 -164 -236 -88 -86 -184 -149 -298 -196 -61 -24 -59 -28 20
-39 l48 -6 -3 -42 -3 -42 -557 -3 -558 -2 0 44 c0 51 9 56 105 56 75 0 102 14
60 30 -121 44 -244 128 -360 245 -99 99 -166 197 -214 308 l-21 48 33 19 c17
11 35 20 39 20 8 0 17 4 188 78 l135 59 27 -53 c69 -138 167 -244 289 -316 46
-28 65 -34 71 -25 9 14 11 658 2 681 -3 9 -12 16 -20 16 -34 0 -218 66 -309
111 -167 83 -274 184 -336 317 -78 170 -63 409 36 578 57 97 174 203 294 265
44 23 59 35 45 37 -63 9 -64 10 -64 57 l0 45 561 0 560 0 -3 -42z"/>
<path d="M1130 2866 c-64 -34 -137 -101 -161 -149 -43 -83 -19 -190 56 -256
45 -39 153 -94 171 -87 12 5 14 48 12 258 -3 285 0 275 -78 234z"/>
<path d="M1614 1807 c-2 -7 -3 -147 -2 -312 l3 -300 28 2 c15 1 62 19 105 39
103 50 175 122 192 194 38 159 -65 293 -293 379 -21 8 -29 8 -33 -2z"/>
</g>
</svg>
